<?xml version="1.0" encoding="UTF-8"?>
<!-- Do not edit this file with editors other than draw.io -->
<!DOCTYPE svg PUBLIC "-//W3C//DTD SVG 1.1//EN" "http://www.w3.org/Graphics/SVG/1.1/DTD/svg11.dtd">
<svg xmlns="http://www.w3.org/2000/svg" style="background: transparent; background-color: transparent; color-scheme: light dark;" xmlns:xlink="http://www.w3.org/1999/xlink" version="1.1" width="1037px" height="540px" viewBox="0 0 1037 540" content="&lt;mxfile host=&quot;Electron&quot; agent=&quot;Mozilla/5.0 (Macintosh; Intel Mac OS X 10_15_7) AppleWebKit/537.36 (KHTML, like Gecko) draw.io/29.6.6 Chrome/144.0.7559.236 Electron/40.8.4 Safari/537.36&quot; version=&quot;29.6.6&quot;&gt;&#10;  &lt;diagram id=&quot;ops-flow&quot; name=&quot;Secret rotation restart flow&quot;&gt;&#10;    &lt;mxGraphModel dx=&quot;1131&quot; dy=&quot;832&quot; grid=&quot;1&quot; gridSize=&quot;10&quot; guides=&quot;1&quot; tooltips=&quot;1&quot; connect=&quot;1&quot; arrows=&quot;1&quot; fold=&quot;1&quot; page=&quot;1&quot; pageScale=&quot;1&quot; pageWidth=&quot;1200&quot; pageHeight=&quot;700&quot; math=&quot;0&quot; shadow=&quot;0&quot;&gt;&#10;      &lt;root&gt;&#10;        &lt;mxCell id=&quot;0&quot; /&gt;&#10;        &lt;mxCell id=&quot;1&quot; parent=&quot;0&quot; /&gt;&#10;        &lt;mxCell id=&quot;e3&quot; edge=&quot;1&quot; parent=&quot;1&quot; source=&quot;ssm&quot; style=&quot;edgeStyle=orthogonalEdgeStyle;rounded=1;strokeColor=#DD344C;strokeWidth=2;fontSize=11;fontColor=#545B64;&quot; target=&quot;ec2&quot; value=&quot;systemctl restart collibra-dq&quot;&gt;&#10;          &lt;mxGeometry relative=&quot;1&quot; as=&quot;geometry&quot; /&gt;&#10;        &lt;/mxCell&gt;&#10;        &lt;mxCell id=&quot;sec&quot; parent=&quot;1&quot; style=&quot;outlineConnect=0;fontColor=#232F3E;gradientColor=none;fillColor=#DD344C;strokeColor=none;verticalLabelPosition=bottom;verticalAlign=top;align=center;html=1;fontSize=12;aspect=fixed;shape=mxgraph.aws4.resourceIcon;resIcon=mxgraph.aws4.secrets_manager&quot; value=&quot;Secrets Manager&amp;lt;br&amp;gt;&amp;lt;font style=&amp;quot;font-size:10px&amp;quot;&amp;gt;RDS master secret rotates&amp;lt;br&amp;gt;(AWS-managed schedule)&amp;lt;/font&amp;gt;&quot; vertex=&quot;1&quot;&gt;&#10;          &lt;mxGeometry height=&quot;60&quot; width=&quot;60&quot; x=&quot;130&quot; y=&quot;80&quot; as=&quot;geometry&quot; /&gt;&#10;        &lt;/mxCell&gt;&#10;        &lt;mxCell id=&quot;ec2&quot; parent=&quot;1&quot; style=&quot;outlineConnect=0;fontColor=#232F3E;gradientColor=none;fillColor=#ED7100;strokeColor=none;verticalLabelPosition=bottom;verticalAlign=top;align=center;html=1;fontSize=12;aspect=fixed;shape=mxgraph.aws4.resourceIcon;resIcon=mxgraph.aws4.ec2&quot; value=&quot;EC2 Collibra DQ&amp;lt;br&amp;gt;&amp;lt;font style=&amp;quot;font-size:10px&amp;quot;&amp;gt;1. Refresh RDS secret from Secrets Manager&amp;lt;br&amp;gt;2. Verify DB auth (non-blocking)&amp;lt;br&amp;gt;3. Start collibra-dq systemd service&amp;lt;/font&amp;gt;&quot; vertex=&quot;1&quot;&gt;&#10;          &lt;mxGeometry height=&quot;60&quot; width=&quot;60&quot; x=&quot;730&quot; y=&quot;340&quot; as=&quot;geometry&quot; /&gt;&#10;        &lt;/mxCell&gt;&#10;        &lt;mxCell id=&quot;cw&quot; parent=&quot;1&quot; style=&quot;outlineConnect=0;fontColor=#232F3E;gradientColor=none;fillColor=#E7157B;strokeColor=none;verticalLabelPosition=bottom;verticalAlign=top;align=center;html=1;fontSize=12;aspect=fixed;shape=mxgraph.aws4.resourceIcon;resIcon=mxgraph.aws4.cloudwatch&quot; value=&quot;CloudWatch Alarms&amp;lt;br&amp;gt;&amp;lt;font style=&amp;quot;font-size:10px&amp;quot;&amp;gt;rotation-target-failures&amp;lt;br&amp;gt;restart-command-failures&amp;lt;/font&amp;gt;&quot; vertex=&quot;1&quot;&gt;&#10;          &lt;mxGeometry height=&quot;60&quot; width=&quot;60&quot; x=&quot;430&quot; y=&quot;340&quot; as=&quot;geometry&quot; /&gt;&#10;        &lt;/mxCell&gt;&#10;        &lt;mxCell id=&quot;sns&quot; parent=&quot;1&quot; style=&quot;outlineConnect=0;fontColor=#232F3E;gradientColor=none;fillColor=#E7157B;strokeColor=none;verticalLabelPosition=bottom;verticalAlign=top;align=center;html=1;fontSize=12;aspect=fixed;shape=mxgraph.aws4.resourceIcon;resIcon=mxgraph.aws4.sns&quot; value=&quot;SNS Topic&amp;lt;br&amp;gt;&amp;lt;font style=&amp;quot;font-size:10px&amp;quot;&amp;gt;(optional)&amp;lt;br&amp;gt;COLLIBRA_DQ_ROTATION_ALARM_ACTIONS&amp;lt;/font&amp;gt;&quot; vertex=&quot;1&quot;&gt;&#10;          &lt;mxGeometry height=&quot;60&quot; width=&quot;60&quot; x=&quot;130&quot; y=&quot;340&quot; as=&quot;geometry&quot; /&gt;&#10;        &lt;/mxCell&gt;&#10;        &lt;mxCell id=&quot;alb-health&quot; parent=&quot;1&quot; style=&quot;outlineConnect=0;fontColor=#232F3E;gradientColor=none;fillColor=#8C4FFF;strokeColor=none;verticalLabelPosition=bottom;verticalAlign=top;align=center;html=1;fontSize=12;aspect=fixed;shape=mxgraph.aws4.resourceIcon;resIcon=mxgraph.aws4.elastic_load_balancing&quot; value=&quot;ALB Target Health&amp;lt;br&amp;gt;&amp;lt;font style=&amp;quot;font-size:10px&amp;quot;&amp;gt;Marks target healthy&amp;lt;br&amp;gt;when :9000 responds&amp;lt;/font&amp;gt;&quot; vertex=&quot;1&quot;&gt;&#10;          &lt;mxGeometry height=&quot;60&quot; width=&quot;60&quot; x=&quot;1010&quot; y=&quot;340&quot; as=&quot;geometry&quot; /&gt;&#10;        &lt;/mxCell&gt;&#10;        &lt;mxCell id=&quot;e1&quot; edge=&quot;1&quot; parent=&quot;1&quot; source=&quot;sec&quot; style=&quot;edgeStyle=orthogonalEdgeStyle;rounded=1;strokeColor=#DD344C;strokeWidth=2;fontSize=11;fontColor=#545B64;&quot; target=&quot;eb&quot; value=&quot;Rotation event&quot;&gt;&#10;          &lt;mxGeometry relative=&quot;1&quot; as=&quot;geometry&quot; /&gt;&#10;        &lt;/mxCell&gt;&#10;        &lt;mxCell id=&quot;e2&quot; edge=&quot;1&quot; parent=&quot;1&quot; source=&quot;eb&quot; style=&quot;edgeStyle=orthogonalEdgeStyle;rounded=1;strokeColor=#DD344C;strokeWidth=2;fontSize=11;fontColor=#545B64;&quot; target=&quot;ssm&quot; value=&quot;Invoke restart&quot;&gt;&#10;          &lt;mxGeometry relative=&quot;1&quot; as=&quot;geometry&quot; /&gt;&#10;        &lt;/mxCell&gt;&#10;        &lt;mxCell id=&quot;e4&quot; edge=&quot;1&quot; parent=&quot;1&quot; source=&quot;eb&quot; style=&quot;edgeStyle=orthogonalEdgeStyle;rounded=1;strokeColor=#545B64;dashed=1;dashPattern=5 3;fontSize=11;fontColor=#545B64;&quot; target=&quot;cw&quot; value=&quot;On failure&quot;&gt;&#10;          &lt;mxGeometry relative=&quot;1&quot; as=&quot;geometry&quot; /&gt;&#10;        &lt;/mxCell&gt;&#10;        &lt;mxCell id=&quot;e6&quot; edge=&quot;1&quot; parent=&quot;1&quot; source=&quot;cw&quot; style=&quot;edgeStyle=orthogonalEdgeStyle;rounded=1;strokeColor=#545B64;dashed=1;dashPattern=5 3;fontSize=11;fontColor=#545B64;&quot; target=&quot;sns&quot; value=&quot;Alarm action&quot;&gt;&#10;          &lt;mxGeometry relative=&quot;1&quot; as=&quot;geometry&quot; /&gt;&#10;        &lt;/mxCell&gt;&#10;        &lt;mxCell id=&quot;e7&quot; edge=&quot;1&quot; parent=&quot;1&quot; source=&quot;ec2&quot; style=&quot;edgeStyle=orthogonalEdgeStyle;rounded=1;strokeColor=#3F8624;strokeWidth=1;fontSize=11;fontColor=#545B64;&quot; target=&quot;alb-health&quot; value=&quot;:9000 responds&quot;&gt;&#10;          &lt;mxGeometry relative=&quot;1&quot; as=&quot;geometry&quot; /&gt;&#10;        &lt;/mxCell&gt;&#10;        &lt;mxCell id=&quot;note-happy&quot; parent=&quot;1&quot; style=&quot;text;html=1;fontSize=11;fontFamily=Arial;fontColor=#DD344C;align=left;fontStyle=2;&quot; value=&quot;Happy path (solid red)&quot; vertex=&quot;1&quot;&gt;&#10;          &lt;mxGeometry height=&quot;20&quot; width=&quot;200&quot; x=&quot;130&quot; y=&quot;560&quot; as=&quot;geometry&quot; /&gt;&#10;        &lt;/mxCell&gt;&#10;        &lt;mxCell id=&quot;note-fail&quot; parent=&quot;1&quot; style=&quot;text;html=1;fontSize=11;fontFamily=Arial;fontColor=#545B64;align=left;fontStyle=2;&quot; value=&quot;Failure path (dashed gray)&quot; vertex=&quot;1&quot;&gt;&#10;          &lt;mxGeometry height=&quot;20&quot; width=&quot;200&quot; x=&quot;130&quot; y=&quot;580&quot; as=&quot;geometry&quot; /&gt;&#10;        &lt;/mxCell&gt;&#10;        &lt;mxCell id=&quot;note-health&quot; parent=&quot;1&quot; style=&quot;text;html=1;fontSize=11;fontFamily=Arial;fontColor=#3F8624;align=left;fontStyle=2;&quot; value=&quot;Recovery confirmation (green)&quot; vertex=&quot;1&quot;&gt;&#10;          &lt;mxGeometry height=&quot;20&quot; width=&quot;200&quot; x=&quot;130&quot; y=&quot;600&quot; as=&quot;geometry&quot; /&gt;&#10;        &lt;/mxCell&gt;&#10;        &lt;mxCell id=&quot;ssm&quot; parent=&quot;1&quot; style=&quot;outlineConnect=0;fontColor=#232F3E;gradientColor=none;fillColor=#E7157B;strokeColor=none;verticalLabelPosition=bottom;verticalAlign=top;align=center;html=1;fontSize=12;aspect=fixed;shape=mxgraph.aws4.resourceIcon;resIcon=mxgraph.aws4.systems_manager&quot; value=&quot;SSM RunCommand&amp;lt;br&amp;gt;&amp;lt;font style=&amp;quot;font-size:10px&amp;quot;&amp;gt;AWS-RunShellScript&amp;lt;br&amp;gt;systemctl restart collibra-dq&amp;lt;/font&amp;gt;&quot; vertex=&quot;1&quot;&gt;&#10;          &lt;mxGeometry height=&quot;60&quot; width=&quot;60&quot; x=&quot;730&quot; y=&quot;80&quot; as=&quot;geometry&quot; /&gt;&#10;        &lt;/mxCell&gt;&#10;        &lt;mxCell id=&quot;eb&quot; parent=&quot;1&quot; style=&quot;outlineConnect=0;fontColor=#232F3E;gradientColor=none;fillColor=#E7157B;strokeColor=none;verticalLabelPosition=bottom;verticalAlign=top;align=center;html=1;fontSize=12;aspect=fixed;shape=mxgraph.aws4.resourceIcon;resIcon=mxgraph.aws4.eventbridge&quot; value=&quot;EventBridge Rule&amp;lt;br&amp;gt;&amp;lt;font style=&amp;quot;font-size:10px&amp;quot;&amp;gt;Matches secret ARN&amp;lt;br&amp;gt;3 retries · 1h max event age&amp;lt;/font&amp;gt;&quot; vertex=&quot;1&quot;&gt;&#10;          &lt;mxGeometry height=&quot;60&quot; width=&quot;60&quot; x=&quot;430&quot; y=&quot;80&quot; as=&quot;geometry&quot; /&gt;&#10;        &lt;/mxCell&gt;&#10;      &lt;/root&gt;&#10;    &lt;/mxGraphModel&gt;&#10;  &lt;/diagram&gt;&#10;&lt;/mxfile&gt;&#10;"><defs/><g><g data-cell-id="0"><g data-cell-id="1"><g data-cell-id="e3"><g><path d="M 708 60 L 708 251.76" fill="none" stroke="#dd344c" stroke-width="2" stroke-miterlimit="10" pointer-events="stroke" style="stroke: rgb(221, 52, 76);"/><path d="M 708 257.76 L 704 249.76 L 708 251.76 L 712 249.76 Z" fill="#dd344c" stroke="#dd344c" stroke-width="2" stroke-miterlimit="10" pointer-events="all" style="fill: rgb(221, 52, 76); stroke: rgb(221, 52, 76);"/></g><g><g fill="#545B64" font-family="Helvetica" text-anchor="middle" font-size="11px" style="fill: rgb(84, 91, 100);"><rect fill="#ffffff" stroke="none" x="641" y="154" width="136" height="14" stroke-width="0" style="fill: light-dark(#ffffff, var(--ge-dark-color, #121212));"/><text x="708" y="164.5">systemctl restart collibra-dq</text></g></g></g><g data-cell-id="sec"><g transform="translate(0.5,0.5)"><path d="M 78 0 L 138 0 L 138 60 L 78 60 Z" fill="#dd344c" stroke="none" pointer-events="all" style="fill: rgb(221, 52, 76);"/><path d="M 106.94 32.88 C 106.94 33.47 107.41 33.94 108 33.94 C 108.59 33.94 109.06 33.47 109.06 32.88 C 109.06 32.29 108.59 31.82 108 31.82 C 107.41 31.82 106.94 32.29 106.94 32.88 Z M 105.22 32.88 C 105.22 31.35 106.47 30.1 108 30.1 C 109.53 30.1 110.78 31.35 110.78 32.88 C 110.78 34.11 109.97 35.14 108.86 35.51 L 108.86 37.71 L 107.14 37.71 L 107.14 35.51 C 106.03 35.14 105.22 34.11 105.22 32.88 Z M 115.71 28.29 L 100.29 28.29 L 100.29 39.43 L 115.71 39.43 L 115.71 36.86 L 113.14 36.86 L 113.14 35.14 L 115.71 35.14 L 115.71 32.57 L 113.14 32.57 L 113.14 30.86 L 115.71 30.86 Z M 102.86 26.57 L 113.14 26.57 L 113.14 22.29 C 113.14 20.04 110.69 18 108 18 L 108 18 C 106.69 18 105.37 18.49 104.37 19.35 C 103.41 20.17 102.86 21.25 102.86 22.29 Z M 114.86 22.29 L 114.86 26.57 L 116.57 26.57 C 117.05 26.57 117.43 26.96 117.43 27.43 L 117.43 40.29 C 117.43 40.76 117.05 41.14 116.57 41.14 L 99.43 41.14 C 98.95 41.14 98.57 40.76 98.57 40.29 L 98.57 27.43 C 98.57 26.96 98.95 26.57 99.43 26.57 L 101.14 26.57 L 101.14 22.29 C 101.14 20.74 101.91 19.2 103.25 18.05 C 104.56 16.93 106.29 16.29 108 16.29 L 108 16.29 C 111.66 16.29 114.86 19.09 114.86 22.29 Z M 90.18 42.9 L 91.57 41.89 C 89.22 38.65 87.93 34.85 87.77 30.86 L 90 30.86 L 90 29.14 L 87.77 29.14 C 87.94 25.17 89.24 21.39 91.57 18.17 L 90.18 17.16 C 87.63 20.68 86.23 24.81 86.06 29.14 L 84 29.14 L 84 30.86 L 86.05 30.86 C 86.21 35.22 87.62 39.37 90.18 42.9 Z M 119.86 46.46 C 116.63 48.8 112.84 50.1 108.86 50.26 L 108.86 48 L 107.14 48 L 107.14 50.26 C 103.16 50.1 99.37 48.8 96.14 46.46 L 95.13 47.85 C 98.66 50.4 102.8 51.81 107.14 51.98 L 107.14 54 L 108.86 54 L 108.86 51.98 C 113.2 51.81 117.34 50.4 120.87 47.85 Z M 96.14 13.6 C 99.37 11.26 103.16 9.97 107.14 9.8 L 107.14 12 L 108.86 12 L 108.86 9.8 C 112.84 9.97 116.63 11.26 119.86 13.6 L 120.87 12.21 C 117.34 9.66 113.2 8.25 108.86 8.09 L 108.86 6 L 107.14 6 L 107.14 8.09 C 102.8 8.25 98.66 9.66 95.13 12.21 Z M 129.94 29.14 C 129.77 24.81 128.36 20.68 125.82 17.16 L 124.43 18.17 C 126.76 21.39 128.06 25.17 128.23 29.14 L 126 29.14 L 126 30.86 L 128.23 30.86 C 128.07 34.85 126.78 38.65 124.43 41.89 L 125.82 42.9 C 128.38 39.37 129.78 35.22 129.94 30.86 L 132 30.86 L 132 29.14 Z M 122.05 17.2 L 128.77 10.48 L 127.55 9.27 L 120.83 15.99 Z M 93.95 42.87 L 87.23 49.59 L 88.45 50.8 L 95.17 44.08 Z M 98.29 19.07 L 85.56 6.35 L 84.35 7.57 L 97.07 20.29 Z M 120.17 40.95 L 131.65 52.43 L 130.43 53.65 L 118.95 42.17 Z" fill="#000000" stroke="none" pointer-events="all" style="fill: rgb(0, 0, 0);"/></g><g><g><switch><foreignObject style="overflow: visible; text-align: left;" pointer-events="none" width="100%" height="100%" requiredFeatures="http://www.w3.org/TR/SVG11/feature#Extensibility"><div xmlns="http://www.w3.org/1999/xhtml" style="display: flex; align-items: unsafe flex-start; justify-content: unsafe center; width: 1px; height: 1px; padding-top: 67px; margin-left: 108px;"><div style="box-sizing: border-box; font-size: 0; text-align: center; color: #232F3E; "><div style="display: inline-block; font-size: 12px; font-family: Helvetica; color: #232F3E; line-height: 1.2; pointer-events: all; white-space: nowrap; ">Secrets Manager<br /><font style="font-size:10px">RDS master secret rotates<br />(AWS-managed schedule)</font></div></div></div></foreignObject><text x="108" y="79" fill="#232F3E" font-family="Helvetica" font-size="12px" text-anchor="middle">Secrets Ma...</text></switch></g></g></g><g data-cell-id="ec2"><g transform="translate(0.5,0.5)"><path d="M 678 260 L 738 260 L 738 320 L 678 320 Z" fill="#ed7100" stroke="none" pointer-events="all" style="fill: rgb(237, 113, 0);"/><path d="M 696.86 301.14 L 718.29 301.14 L 718.29 279.71 L 696.86 279.71 Z M 720 279.71 L 723.43 279.71 L 723.43 281.43 L 720 281.43 L 720 284.86 L 723.43 284.86 L 723.43 286.57 L 720 286.57 L 720 289.14 L 723.43 289.14 L 723.43 290.86 L 720 290.86 L 720 294.29 L 723.43 294.29 L 723.43 296 L 720 296 L 720 299.43 L 723.43 299.43 L 723.43 301.14 L 720 301.14 L 720 301.26 C 720 302.14 719.28 302.86 718.4 302.86 L 718.29 302.86 L 718.29 306.29 L 716.57 306.29 L 716.57 302.86 L 713.14 302.86 L 713.14 306.29 L 711.43 306.29 L 711.43 302.86 L 708.86 302.86 L 708.86 306.29 L 707.14 306.29 L 707.14 302.86 L 703.71 302.86 L 703.71 306.29 L 702 306.29 L 702 302.86 L 698.57 302.86 L 698.57 306.29 L 696.86 306.29 L 696.86 302.86 L 696.74 302.86 C 695.86 302.86 695.14 302.14 695.14 301.26 L 695.14 301.14 L 692.57 301.14 L 692.57 299.43 L 695.14 299.43 L 695.14 296 L 692.57 296 L 692.57 294.29 L 695.14 294.29 L 695.14 290.86 L 692.57 290.86 L 692.57 289.14 L 695.14 289.14 L 695.14 286.57 L 692.57 286.57 L 692.57 284.86 L 695.14 284.86 L 695.14 281.43 L 692.57 281.43 L 692.57 279.71 L 695.14 279.71 L 695.14 279.6 C 695.14 278.72 695.86 278 696.74 278 L 696.86 278 L 696.86 274.57 L 698.57 274.57 L 698.57 278 L 702 278 L 702 274.57 L 703.71 274.57 L 703.71 278 L 707.14 278 L 707.14 274.57 L 708.86 274.57 L 708.86 278 L 711.43 278 L 711.43 274.57 L 713.14 274.57 L 713.14 278 L 716.57 278 L 716.57 274.57 L 718.29 274.57 L 718.29 278 L 718.4 278 C 719.28 278 720 278.72 720 279.6 Z M 708.86 312.18 C 708.86 312.24 708.81 312.29 708.75 312.29 L 685.82 312.29 C 685.76 312.29 685.71 312.24 685.71 312.18 L 685.71 289.25 C 685.71 289.19 685.76 289.14 685.82 289.14 L 690.86 289.14 L 690.86 287.43 L 685.82 287.43 C 684.82 287.43 684 288.25 684 289.25 L 684 312.18 C 684 313.18 684.82 314 685.82 314 L 708.75 314 C 709.75 314 710.57 313.18 710.57 312.18 L 710.57 308 L 708.86 308 Z M 732 267.82 L 732 290.75 C 732 291.75 731.18 292.57 730.18 292.57 L 725.14 292.57 L 725.14 290.86 L 730.18 290.86 C 730.24 290.86 730.29 290.81 730.29 290.75 L 730.29 267.82 C 730.29 267.76 730.24 267.71 730.18 267.71 L 707.25 267.71 C 707.19 267.71 707.14 267.76 707.14 267.82 L 707.14 272.86 L 705.43 272.86 L 705.43 267.82 C 705.43 266.82 706.25 266 707.25 266 L 730.18 266 C 731.18 266 732 266.82 732 267.82 Z" fill="#000000" stroke="none" pointer-events="all" style="fill: rgb(0, 0, 0);"/></g><g><g><switch><foreignObject style="overflow: visible; text-align: left;" pointer-events="none" width="100%" height="100%" requiredFeatures="http://www.w3.org/TR/SVG11/feature#Extensibility"><div xmlns="http://www.w3.org/1999/xhtml" style="display: flex; align-items: unsafe flex-start; justify-content: unsafe center; width: 1px; height: 1px; padding-top: 327px; margin-left: 708px;"><div style="box-sizing: border-box; font-size: 0; text-align: center; color: #232F3E; "><div style="display: inline-block; font-size: 12px; font-family: Helvetica; color: #232F3E; line-height: 1.2; pointer-events: all; white-space: nowrap; ">EC2 Collibra DQ<br /><font style="font-size:10px">1. Refresh RDS secret from Secrets Manager<br />2. Verify DB auth (non-blocking)<br />3. Start collibra-dq systemd service</font></div></div></div></foreignObject><text x="708" y="339" fill="#232F3E" font-family="Helvetica" font-size="12px" text-anchor="middle">EC2 Collib...</text></switch></g></g></g><g data-cell-id="cw"><g transform="translate(0.5,0.5)"><path d="M 378 260 L 438 260 L 438 320 L 378 320 Z" fill="#e7157b" stroke="none" pointer-events="all" style="fill: rgb(231, 21, 123);"/><path d="M 402.99 268.79 C 400.24 268.85 397.49 269.81 395.16 271.86 C 395.14 271.88 395.12 271.9 395.1 271.91 C 391.33 275.83 390.84 279.04 390.99 281.93 C 388.79 282.43 386.68 284.21 385.33 287.19 C 385.32 287.21 385.31 287.24 385.3 287.27 C 384 291.11 385.2 293.73 385.97 295.41 C 385.99 295.45 386.01 295.49 386.03 295.52 C 387.84 298.37 390.17 299.75 392.51 299.75 C 392.51 299.75 392.52 299.75 392.52 299.75 L 402.53 299.69 L 402.52 297.83 L 392.52 297.89 C 390.89 297.89 389.21 297.01 387.64 294.57 C 386.86 292.89 385.97 291.15 387.06 287.91 C 388.38 285.02 390.4 283.67 391.99 283.58 C 392.52 283.55 392.91 283.09 392.87 282.56 C 392.6 279.65 392.63 277.19 396.42 273.24 C 399.46 270.57 403.21 270.09 406.66 271.18 C 409.65 272.31 412.37 274.77 413.74 278.72 C 413.98 279.44 414.94 279.57 415.38 278.95 C 416.58 277.24 418.47 276.66 420.56 278.06 C 422.04 279.12 422.43 280.75 422.52 282.5 C 422.55 282.94 422.89 283.31 423.33 283.37 C 425.97 283.72 428.01 285.13 429.15 287.1 C 429.95 288.81 430.07 291.23 429.55 293.08 C 428.65 295.27 427.77 296 426.41 296.78 L 427.33 298.39 C 428.89 297.5 430.27 296.28 431.3 293.73 C 431.32 293.7 431.33 293.67 431.34 293.64 C 432 291.32 431.89 288.53 430.82 286.28 C 430.81 286.26 430.8 286.24 430.79 286.22 C 429.47 283.89 427.11 282.26 424.24 281.69 C 424.04 279.87 423.5 277.87 421.63 276.54 C 421.62 276.53 421.61 276.53 421.61 276.53 C 419.29 274.96 416.7 275.34 414.9 276.86 C 413.23 273.15 410.43 270.61 407.29 269.43 C 407.27 269.43 407.26 269.42 407.24 269.42 C 406.25 269.1 405.21 268.9 404.17 268.82 L 404.17 268.82 C 403.78 268.79 403.39 268.78 402.99 268.79 Z M 415.42 284.55 C 409.93 284.55 405.45 289.03 405.45 294.52 C 405.45 300.01 409.93 304.48 415.42 304.48 C 416.92 304.48 418.35 304.14 419.63 303.54 L 426.04 309.95 C 426.05 309.96 426.06 309.97 426.06 309.97 C 426.69 310.57 427.46 311.01 428.31 311.11 C 429.17 311.22 430.09 310.95 430.85 310.34 C 430.91 310.29 430.96 310.24 431.01 310.18 C 431.53 309.49 431.9 308.72 431.94 307.89 C 431.99 307.06 431.67 306.21 431.04 305.53 C 431.03 305.52 431.02 305.51 431.01 305.5 L 424.38 298.85 C 425.02 297.54 425.38 296.07 425.38 294.52 C 425.38 289.03 420.91 284.55 415.42 284.55 Z M 415.42 286.41 C 419.9 286.41 423.52 290.03 423.52 294.52 C 423.52 299 419.9 302.62 415.42 302.62 C 410.93 302.62 407.31 299 407.31 294.52 C 407.31 290.03 410.93 286.41 415.42 286.41 Z M 412.66 296.81 C 411.85 296.23 411.32 295.28 411.32 294.19 C 411.32 292.41 412.75 290.98 414.54 290.98 C 415.26 290.98 415.92 291.21 416.45 291.61 L 417.57 290.13 C 416.72 289.5 415.67 289.12 414.54 289.12 C 411.75 289.12 409.46 291.4 409.46 294.19 C 409.46 295.86 410.27 297.34 411.52 298.27 Z M 423.39 300.48 L 429.67 306.79 C 430.02 307.17 430.1 307.45 430.08 307.79 C 430.07 308.1 429.88 308.5 429.58 308.92 C 429.2 309.2 428.87 309.31 428.54 309.26 C 428.17 309.22 427.75 309.01 427.34 308.62 L 421.28 302.56 C 422.08 301.98 422.79 301.28 423.39 300.48 Z" fill="#000000" stroke="none" pointer-events="all" style="fill: rgb(0, 0, 0);"/></g><g><g><switch><foreignObject style="overflow: visible; text-align: left;" pointer-events="none" width="100%" height="100%" requiredFeatures="http://www.w3.org/TR/SVG11/feature#Extensibility"><div xmlns="http://www.w3.org/1999/xhtml" style="display: flex; align-items: unsafe flex-start; justify-content: unsafe center; width: 1px; height: 1px; padding-top: 327px; margin-left: 408px;"><div style="box-sizing: border-box; font-size: 0; text-align: center; color: #232F3E; "><div style="display: inline-block; font-size: 12px; font-family: Helvetica; color: #232F3E; line-height: 1.2; pointer-events: all; white-space: nowrap; ">CloudWatch Alarms<br /><font style="font-size:10px">rotation-target-failures<br />restart-command-failures</font></div></div></div></foreignObject><text x="408" y="339" fill="#232F3E" font-family="Helvetica" font-size="12px" text-anchor="middle">CloudWatch...</text></switch></g></g></g><g data-cell-id="sns"><g transform="translate(0.5,0.5)"><path d="M 78 260 L 138 260 L 138 320 L 78 320 Z" fill="#e7157b" stroke="none" pointer-events="all" style="fill: rgb(231, 21, 123);"/><path d="M 87.49 288.25 C 88.45 288.25 89.24 289.04 89.24 290 C 89.24 290.96 88.45 291.75 87.49 291.75 C 86.53 291.75 85.75 290.96 85.75 290 C 85.75 289.04 86.53 288.25 87.49 288.25 Z M 108.44 310.95 C 98.24 310.95 89.49 303.5 87.66 293.47 C 89.21 293.4 90.48 292.32 90.86 290.87 L 96.22 290.87 L 96.22 289.13 L 90.86 289.13 C 90.48 287.68 89.21 286.6 87.66 286.53 C 89.49 276.66 98.41 269.05 108.44 269.05 C 112.2 269.05 116.14 270.47 120.16 273.26 L 121.15 271.83 C 116.84 268.83 112.56 267.31 108.44 267.31 C 97.33 267.31 87.45 275.92 85.8 286.96 C 84.73 287.56 84 288.69 84 290 C 84 291.31 84.73 292.44 85.8 293.04 C 87.46 304.26 97.14 312.69 108.44 312.69 C 113.16 312.69 117.99 311.08 122.04 308.16 L 121.02 306.75 C 117.26 309.45 112.79 310.95 108.44 310.95 Z M 98.92 286.89 C 100.54 287.29 102.57 287.38 104.07 287.38 C 105.51 287.38 107.41 287.3 108.99 286.95 L 105.04 294.85 C 104.98 294.97 104.95 295.1 104.95 295.24 L 104.95 299.12 C 104.25 299.57 103.05 300.31 102.33 300.46 L 102.33 295.24 C 102.33 295.12 102.3 295.01 102.26 294.9 Z M 104.07 283.89 C 107.59 283.89 109.46 284.42 110.04 284.76 C 109.46 285.11 107.59 285.64 104.07 285.64 C 100.56 285.64 98.68 285.11 98.1 284.76 C 98.68 284.42 100.56 283.89 104.07 283.89 Z M 101.45 302.22 L 102.33 302.22 C 102.36 302.22 102.4 302.22 102.44 302.21 C 103.51 302.07 104.87 301.25 106.06 300.48 L 106.29 300.34 C 106.54 300.18 106.69 299.9 106.69 299.6 L 106.69 295.44 L 111.54 285.74 C 111.78 285.46 111.93 285.14 111.93 284.76 C 111.93 282.49 107.01 282.15 104.07 282.15 C 101.14 282.15 96.22 282.49 96.22 284.76 C 96.22 285.08 96.32 285.36 96.5 285.61 L 100.58 295.41 L 100.58 301.35 C 100.58 301.83 100.97 302.22 101.45 302.22 Z M 126.76 301.35 C 127.73 301.35 128.51 302.13 128.51 303.09 C 128.51 304.05 127.73 304.84 126.76 304.84 C 125.8 304.84 125.02 304.05 125.02 303.09 C 125.02 302.13 125.8 301.35 126.76 301.35 Z M 126.76 275.16 C 127.73 275.16 128.51 275.95 128.51 276.91 C 128.51 277.87 127.73 278.65 126.76 278.65 C 125.8 278.65 125.02 277.87 125.02 276.91 C 125.02 275.95 125.8 275.16 126.76 275.16 Z M 128.51 288.25 C 129.47 288.25 130.25 289.04 130.25 290 C 130.25 290.96 129.47 291.75 128.51 291.75 C 127.55 291.75 126.76 290.96 126.76 290 C 126.76 289.04 127.55 288.25 128.51 288.25 Z M 119.78 290.87 L 125.14 290.87 C 125.53 292.37 126.89 293.49 128.51 293.49 C 130.43 293.49 132 291.93 132 290 C 132 288.07 130.43 286.51 128.51 286.51 C 126.89 286.51 125.53 287.63 125.14 289.13 L 119.78 289.13 L 119.78 277.78 L 123.4 277.78 C 123.79 279.28 125.14 280.4 126.76 280.4 C 128.69 280.4 130.25 278.83 130.25 276.91 C 130.25 274.98 128.69 273.42 126.76 273.42 C 125.14 273.42 123.79 274.54 123.4 276.04 L 118.91 276.04 C 118.43 276.04 118.04 276.43 118.04 276.91 L 118.04 289.13 L 111.93 289.13 L 111.93 290.87 L 118.04 290.87 L 118.04 303.09 C 118.04 303.57 118.43 303.96 118.91 303.96 L 123.4 303.96 C 123.79 305.46 125.14 306.58 126.76 306.58 C 128.69 306.58 130.25 305.02 130.25 303.09 C 130.25 301.17 128.69 299.6 126.76 299.6 C 125.14 299.6 123.79 300.72 123.4 302.22 L 119.78 302.22 Z" fill="#000000" stroke="none" pointer-events="all" style="fill: rgb(0, 0, 0);"/></g><g><g><switch><foreignObject style="overflow: visible; text-align: left;" pointer-events="none" width="100%" height="100%" requiredFeatures="http://www.w3.org/TR/SVG11/feature#Extensibility"><div xmlns="http://www.w3.org/1999/xhtml" style="display: flex; align-items: unsafe flex-start; justify-content: unsafe center; width: 1px; height: 1px; padding-top: 327px; margin-left: 108px;"><div style="box-sizing: border-box; font-size: 0; text-align: center; color: #232F3E; "><div style="display: inline-block; font-size: 12px; font-family: Helvetica; color: #232F3E; line-height: 1.2; pointer-events: all; white-space: nowrap; ">SNS Topic<br /><font style="font-size:10px">(optional)<br />COLLIBRA_DQ_ROTATION_ALARM_ACTIONS</font></div></div></div></foreignObject><text x="108" y="339" fill="#232F3E" font-family="Helvetica" font-size="12px" text-anchor="middle">SNS Topic...</text></switch></g></g></g><g data-cell-id="alb-health"><g transform="translate(0.5,0.5)"><path d="M 958 260 L 1018 260 L 1018 320 L 958 320 Z" fill="#8c4fff" stroke="none" pointer-events="all" style="fill: rgb(140, 79, 255);"/><path d="M 978.4 302.48 C 971.52 302.48 965.92 296.88 965.92 290 C 965.92 283.12 971.52 277.52 978.4 277.52 C 985.28 277.52 990.88 283.12 990.88 290 C 990.88 296.88 985.28 302.48 978.4 302.48 M 1007.2 308.24 C 1007.2 310.36 1005.48 312.08 1003.36 312.08 C 1001.24 312.08 999.52 310.36 999.52 308.24 C 999.52 306.12 1001.24 304.4 1003.36 304.4 C 1005.48 304.4 1007.2 306.12 1007.2 308.24 M 1003.36 267.92 C 1005.48 267.92 1007.2 269.64 1007.2 271.76 C 1007.2 273.88 1005.48 275.6 1003.36 275.6 C 1001.24 275.6 999.52 273.88 999.52 271.76 C 999.52 269.64 1001.24 267.92 1003.36 267.92 M 1006.24 286.16 C 1008.36 286.16 1010.08 287.88 1010.08 290 C 1010.08 292.12 1008.36 293.84 1006.24 293.84 C 1004.12 293.84 1002.4 292.12 1002.4 290 C 1002.4 287.88 1004.12 286.16 1006.24 286.16 M 992.75 290.96 L 1000.57 290.96 C 1001.03 293.68 1003.39 295.76 1006.24 295.76 C 1009.42 295.76 1012 293.18 1012 290 C 1012 286.82 1009.42 284.24 1006.24 284.24 C 1003.39 284.24 1001.03 286.32 1000.57 289.04 L 992.75 289.04 C 992.63 287.22 992.17 285.49 991.43 283.91 L 999.95 276.39 C 1000.9 277.1 1002.08 277.52 1003.36 277.52 C 1006.54 277.52 1009.12 274.94 1009.12 271.76 C 1009.12 268.58 1006.54 266 1003.36 266 C 1000.18 266 997.6 268.58 997.6 271.76 C 997.6 272.97 997.97 274.08 998.61 275.01 L 990.48 282.18 C 987.91 278.23 983.46 275.6 978.4 275.6 C 970.46 275.6 964 282.06 964 290 C 964 297.94 970.46 304.4 978.4 304.4 C 983.46 304.4 987.91 301.77 990.48 297.82 L 998.61 304.99 C 997.97 305.92 997.6 307.03 997.6 308.24 C 997.6 311.42 1000.18 314 1003.36 314 C 1006.54 314 1009.12 311.42 1009.12 308.24 C 1009.12 305.06 1006.54 302.48 1003.36 302.48 C 1002.08 302.48 1000.9 302.9 999.95 303.61 L 991.43 296.09 C 992.17 294.51 992.63 292.78 992.75 290.96" fill="#000000" stroke="none" pointer-events="all" style="fill: rgb(0, 0, 0);"/></g><g><g><switch><foreignObject style="overflow: visible; text-align: left;" pointer-events="none" width="100%" height="100%" requiredFeatures="http://www.w3.org/TR/SVG11/feature#Extensibility"><div xmlns="http://www.w3.org/1999/xhtml" style="display: flex; align-items: unsafe flex-start; justify-content: unsafe center; width: 1px; height: 1px; padding-top: 327px; margin-left: 988px;"><div style="box-sizing: border-box; font-size: 0; text-align: center; color: #232F3E; "><div style="display: inline-block; font-size: 12px; font-family: Helvetica; color: #232F3E; line-height: 1.2; pointer-events: all; white-space: nowrap; ">ALB Target Health<br /><font style="font-size:10px">Marks target healthy<br />when :9000 responds</font></div></div></div></foreignObject><text x="988" y="339" fill="#232F3E" font-family="Helvetica" font-size="12px" text-anchor="middle">ALB Target...</text></switch></g></g></g><g data-cell-id="e1"><g><path d="M 138 30 L 369.76 30" fill="none" stroke="#dd344c" stroke-width="2" stroke-miterlimit="10" pointer-events="stroke" style="stroke: rgb(221, 52, 76);"/><path d="M 375.76 30 L 367.76 34 L 369.76 30 L 367.76 26 Z" fill="#dd344c" stroke="#dd344c" stroke-width="2" stroke-miterlimit="10" pointer-events="all" style="fill: rgb(221, 52, 76); stroke: rgb(221, 52, 76);"/></g><g><g fill="#545B64" font-family="Helvetica" text-anchor="middle" font-size="11px" style="fill: rgb(84, 91, 100);"><rect fill="#ffffff" stroke="none" x="222" y="24" width="73" height="14" stroke-width="0" style="fill: light-dark(#ffffff, var(--ge-dark-color, #121212));"/><text x="258" y="34.5">Rotation event</text></g></g></g><g data-cell-id="e2"><g><path d="M 438 30 L 669.76 30" fill="none" stroke="#dd344c" stroke-width="2" stroke-miterlimit="10" pointer-events="stroke" style="stroke: rgb(221, 52, 76);"/><path d="M 675.76 30 L 667.76 34 L 669.76 30 L 667.76 26 Z" fill="#dd344c" stroke="#dd344c" stroke-width="2" stroke-miterlimit="10" pointer-events="all" style="fill: rgb(221, 52, 76); stroke: rgb(221, 52, 76);"/></g><g><g fill="#545B64" font-family="Helvetica" text-anchor="middle" font-size="11px" style="fill: rgb(84, 91, 100);"><rect fill="#ffffff" stroke="none" x="524" y="24" width="69" height="14" stroke-width="0" style="fill: light-dark(#ffffff, var(--ge-dark-color, #121212));"/><text x="558" y="34.5">Invoke restart</text></g></g></g><g data-cell-id="e4"><g transform="translate(0.5,0.5)"><path d="M 408 60 L 408 253.63" fill="none" stroke="#545b64" stroke-miterlimit="10" stroke-dasharray="5 3" pointer-events="stroke" style="stroke: rgb(84, 91, 100);"/><path d="M 408 258.88 L 404.5 251.88 L 408 253.63 L 411.5 251.88 Z" fill="#545b64" stroke="#545b64" stroke-miterlimit="10" pointer-events="all" style="fill: rgb(84, 91, 100); stroke: rgb(84, 91, 100);"/></g><g><g fill="#545B64" font-family="Helvetica" text-anchor="middle" font-size="11px" style="fill: rgb(84, 91, 100);"><rect fill="#ffffff" stroke="none" x="384" y="154" width="50" height="14" stroke-width="0" style="fill: light-dark(#ffffff, var(--ge-dark-color, #121212));"/><text x="408" y="164.5">On failure</text></g></g></g><g data-cell-id="e6"><g transform="translate(0.5,0.5)"><path d="M 378 290 L 144.37 290" fill="none" stroke="#545b64" stroke-miterlimit="10" stroke-dasharray="5 3" pointer-events="stroke" style="stroke: rgb(84, 91, 100);"/><path d="M 139.12 290 L 146.12 286.5 L 144.37 290 L 146.12 293.5 Z" fill="#545b64" stroke="#545b64" stroke-miterlimit="10" pointer-events="all" style="fill: rgb(84, 91, 100); stroke: rgb(84, 91, 100);"/></g><g><g fill="#545B64" font-family="Helvetica" text-anchor="middle" font-size="11px" style="fill: rgb(84, 91, 100);"><rect fill="#ffffff" stroke="none" x="227" y="284" width="63" height="14" stroke-width="0" style="fill: light-dark(#ffffff, var(--ge-dark-color, #121212));"/><text x="258" y="294.5">Alarm action</text></g></g></g><g data-cell-id="e7"><g transform="translate(0.5,0.5)"><path d="M 738 290 L 951.63 290" fill="none" stroke="#3f8624" stroke-miterlimit="10" pointer-events="stroke" style="stroke: rgb(63, 134, 36);"/><path d="M 956.88 290 L 949.88 293.5 L 951.63 290 L 949.88 286.5 Z" fill="#3f8624" stroke="#3f8624" stroke-miterlimit="10" pointer-events="all" style="fill: rgb(63, 134, 36); stroke: rgb(63, 134, 36);"/></g><g><g fill="#545B64" font-family="Helvetica" text-anchor="middle" font-size="11px" style="fill: rgb(84, 91, 100);"><rect fill="#ffffff" stroke="none" x="810" y="284" width="78" height="14" stroke-width="0" style="fill: light-dark(#ffffff, var(--ge-dark-color, #121212));"/><text x="848" y="294.5">:9000 responds</text></g></g></g><g data-cell-id="note-happy"><g transform="translate(0.5,0.5)"><rect x="78" y="480" width="200" height="20" fill="none" stroke="none" pointer-events="all"/></g><g><g><switch><foreignObject style="overflow: visible; text-align: left;" pointer-events="none" width="100%" height="100%" requiredFeatures="http://www.w3.org/TR/SVG11/feature#Extensibility"><div xmlns="http://www.w3.org/1999/xhtml" style="display: flex; align-items: unsafe flex-start; justify-content: unsafe flex-start; width: 1px; height: 1px; padding-top: 487px; margin-left: 80px;"><div style="box-sizing: border-box; font-size: 0; text-align: left; color: #DD344C; "><div style="display: inline-block; font-size: 11px; font-family: Arial; color: #DD344C; line-height: 1.2; pointer-events: all; font-style: italic; white-space: nowrap; ">Happy path (solid red)</div></div></div></foreignObject><text x="80" y="498" fill="#DD344C" font-family="Arial" font-size="11px" font-style="italic">Happy path (solid red)</text></switch></g></g></g><g data-cell-id="note-fail"><g transform="translate(0.5,0.5)"><rect x="78" y="500" width="200" height="20" fill="none" stroke="none" pointer-events="all"/></g><g><g><switch><foreignObject style="overflow: visible; text-align: left;" pointer-events="none" width="100%" height="100%" requiredFeatures="http://www.w3.org/TR/SVG11/feature#Extensibility"><div xmlns="http://www.w3.org/1999/xhtml" style="display: flex; align-items: unsafe flex-start; justify-content: unsafe flex-start; width: 1px; height: 1px; padding-top: 507px; margin-left: 80px;"><div style="box-sizing: border-box; font-size: 0; text-align: left; color: #545B64; "><div style="display: inline-block; font-size: 11px; font-family: Arial; color: #545B64; line-height: 1.2; pointer-events: all; font-style: italic; white-space: nowrap; ">Failure path (dashed gray)</div></div></div></foreignObject><text x="80" y="518" fill="#545B64" font-family="Arial" font-size="11px" font-style="italic">Failure path (dashed gray)</text></switch></g></g></g><g data-cell-id="note-health"><g transform="translate(0.5,0.5)"><rect x="78" y="520" width="200" height="20" fill="none" stroke="none" pointer-events="all"/></g><g><g><switch><foreignObject style="overflow: visible; text-align: left;" pointer-events="none" width="100%" height="100%" requiredFeatures="http://www.w3.org/TR/SVG11/feature#Extensibility"><div xmlns="http://www.w3.org/1999/xhtml" style="display: flex; align-items: unsafe flex-start; justify-content: unsafe flex-start; width: 1px; height: 1px; padding-top: 527px; margin-left: 80px;"><div style="box-sizing: border-box; font-size: 0; text-align: left; color: #3F8624; "><div style="display: inline-block; font-size: 11px; font-family: Arial; color: #3F8624; line-height: 1.2; pointer-events: all; font-style: italic; white-space: nowrap; ">Recovery confirmation (green)</div></div></div></foreignObject><text x="80" y="538" fill="#3F8624" font-family="Arial" font-size="11px" font-style="italic">Recovery confirmation (green)</text></switch></g></g></g><g data-cell-id="ssm"><g transform="translate(0.5,0.5)"><path d="M 678 0 L 738 0 L 738 60 L 678 60 Z" fill="#e7157b" stroke="none" pointer-events="all" style="fill: rgb(231, 21, 123);"/><path d="M 713.87 43.09 L 724.78 43.09 L 724.78 44.77 L 713.87 44.77 L 713.87 46.45 L 712.19 46.45 L 712.19 44.77 L 708.84 44.77 L 708.84 43.09 L 712.19 43.09 L 712.19 42.25 L 713.87 42.25 Z M 717.23 38.06 L 724.78 38.06 L 724.78 39.74 L 717.23 39.74 L 717.23 41.41 L 715.55 41.41 L 715.55 39.74 L 708.84 39.74 L 708.84 38.06 L 715.55 38.06 L 715.55 37.22 L 717.23 37.22 Z M 721.42 33.02 L 724.78 33.02 L 724.78 34.7 L 721.42 34.7 L 721.42 36.38 L 719.74 36.38 L 719.74 34.7 L 708.84 34.7 L 708.84 33.02 L 719.74 33.02 L 719.74 32.19 L 721.42 32.19 Z M 692.06 36.38 L 699.61 36.38 L 699.61 38.06 L 692.06 38.06 C 691.01 38.06 689.88 37.74 689.05 37.21 C 687.36 36.14 684.51 33.63 684.51 28.87 C 684.51 23.1 688.42 20.98 690.7 20.23 L 690.66 19.47 C 690.66 14.71 693.8 9.84 697.97 8.08 C 702.86 6 708.03 7.03 711.81 10.83 C 712.99 12 713.95 13.44 714.69 15.1 C 716.18 13.86 718.2 13.44 720.08 14.06 C 722.47 14.84 723.95 17.05 724.13 20.02 C 726.51 20.59 731.49 22.55 731.49 28.94 C 731.49 29.18 731.48 29.41 731.47 29.63 L 729.79 29.59 C 729.8 29.37 729.81 29.16 729.81 28.94 C 729.81 23.29 725.15 21.88 723.15 21.53 C 722.92 21.49 722.72 21.36 722.59 21.17 C 722.46 20.98 722.42 20.75 722.47 20.53 C 722.44 18.03 721.39 16.25 719.56 15.65 C 717.92 15.11 716.12 15.71 715.08 17.13 C 714.89 17.38 714.59 17.51 714.28 17.46 C 713.97 17.41 713.71 17.2 713.61 16.91 C 712.91 14.94 711.91 13.3 710.62 12.01 C 707.34 8.72 702.86 7.82 698.63 9.62 C 695.1 11.11 692.33 15.41 692.33 19.42 L 692.42 20.8 C 692.44 21.21 692.18 21.57 691.79 21.67 C 689.7 22.2 686.19 23.84 686.19 28.87 C 686.19 32.63 688.23 34.71 689.95 35.8 C 690.52 36.16 691.33 36.38 692.06 36.38 Z M 729.81 40.84 L 728.33 40.76 C 727.93 40.74 727.56 41.01 727.47 41.41 C 727.18 42.67 726.69 43.86 726 44.95 C 725.78 45.3 725.84 45.75 726.15 46.03 L 727.26 47.01 L 724.5 49.77 L 723.52 48.67 C 723.25 48.36 722.79 48.3 722.45 48.51 C 721.36 49.2 720.16 49.7 718.9 49.98 C 718.5 50.07 718.23 50.44 718.25 50.85 L 718.34 52.32 L 714.44 52.32 L 714.53 50.85 C 714.55 50.44 714.27 50.07 713.87 49.98 C 712.62 49.7 711.43 49.2 710.33 48.51 C 709.99 48.29 709.53 48.36 709.26 48.66 L 708.27 49.77 L 705.52 47.01 L 706.63 46.03 C 706.93 45.76 707 45.3 706.78 44.96 C 706.09 43.86 705.59 42.67 705.31 41.41 C 705.22 41.01 704.82 40.74 704.44 40.76 L 702.97 40.84 L 702.97 36.95 L 704.45 37.04 C 704.84 37.06 705.22 36.78 705.32 36.38 C 705.6 35.13 706.09 33.94 706.78 32.85 C 707 32.5 706.94 32.05 706.63 31.77 L 705.52 30.78 L 708.27 28.03 L 709.27 29.14 C 709.54 29.44 709.99 29.51 710.34 29.29 C 711.43 28.6 712.62 28.11 713.87 27.83 C 714.27 27.74 714.55 27.37 714.53 26.96 L 714.44 25.47 L 718.34 25.47 L 718.25 26.96 C 718.23 27.37 718.5 27.74 718.9 27.83 C 720.16 28.11 721.35 28.6 722.44 29.29 C 722.78 29.51 723.24 29.45 723.51 29.14 L 724.5 28.03 L 727.26 30.78 L 726.15 31.77 C 725.84 32.04 725.78 32.5 726 32.85 C 726.69 33.94 727.18 35.13 727.46 36.38 C 727.55 36.78 727.93 37.06 728.33 37.04 L 729.81 36.95 Z M 730.6 35.22 L 728.92 35.32 C 728.65 34.36 728.27 33.44 727.78 32.56 L 729.04 31.44 C 729.21 31.29 729.31 31.07 729.32 30.84 C 729.32 30.61 729.23 30.39 729.07 30.22 L 725.06 26.21 C 724.9 26.05 724.67 25.96 724.45 25.97 C 724.21 25.98 724 26.08 723.84 26.25 L 722.72 27.51 C 721.85 27.02 720.92 26.64 719.96 26.37 L 720.06 24.68 C 720.07 24.45 719.99 24.23 719.83 24.06 C 719.67 23.89 719.45 23.8 719.22 23.8 L 713.55 23.8 C 713.32 23.8 713.1 23.89 712.95 24.06 C 712.79 24.23 712.7 24.45 712.72 24.68 L 712.81 26.37 C 711.85 26.64 710.93 27.02 710.06 27.51 L 708.93 26.25 C 708.78 26.08 708.56 25.98 708.33 25.97 C 708.09 25.96 707.88 26.05 707.72 26.21 L 703.71 30.22 C 703.54 30.39 703.45 30.61 703.46 30.84 C 703.47 31.07 703.57 31.29 703.74 31.44 L 705 32.56 C 704.51 33.44 704.13 34.36 703.86 35.32 L 702.18 35.22 C 701.95 35.21 701.72 35.29 701.55 35.45 C 701.38 35.61 701.29 35.83 701.29 36.06 L 701.29 41.73 C 701.29 41.96 701.38 42.18 701.55 42.34 C 701.72 42.5 701.95 42.58 702.18 42.57 L 703.85 42.47 C 704.12 43.44 704.51 44.36 704.99 45.24 L 703.74 46.35 C 703.57 46.51 703.47 46.72 703.46 46.95 C 703.45 47.18 703.54 47.41 703.71 47.57 L 707.72 51.58 C 707.88 51.74 708.12 51.83 708.33 51.83 C 708.56 51.82 708.78 51.72 708.93 51.55 L 710.05 50.29 C 710.93 50.78 711.85 51.17 712.81 51.44 L 712.72 53.11 C 712.7 53.34 712.79 53.57 712.95 53.74 C 713.1 53.91 713.32 54 713.55 54 L 719.22 54 C 719.45 54 719.67 53.91 719.83 53.74 C 719.99 53.57 720.07 53.34 720.06 53.11 L 719.97 51.44 C 720.93 51.17 721.85 50.79 722.73 50.3 L 723.84 51.55 C 724 51.72 724.21 51.82 724.45 51.83 C 724.67 51.84 724.9 51.74 725.06 51.58 L 729.07 47.57 C 729.23 47.41 729.32 47.18 729.32 46.95 C 729.31 46.72 729.21 46.51 729.03 46.35 L 727.78 45.24 C 728.27 44.36 728.65 43.44 728.93 42.47 L 730.6 42.57 C 730.83 42.58 731.06 42.5 731.23 42.34 C 731.39 42.18 731.49 41.96 731.49 41.73 L 731.49 36.06 C 731.49 35.83 731.39 35.61 731.23 35.45 C 731.06 35.29 730.83 35.21 730.6 35.22 Z" fill="#000000" stroke="none" pointer-events="all" style="fill: rgb(0, 0, 0);"/></g><g><g><switch><foreignObject style="overflow: visible; text-align: left;" pointer-events="none" width="100%" height="100%" requiredFeatures="http://www.w3.org/TR/SVG11/feature#Extensibility"><div xmlns="http://www.w3.org/1999/xhtml" style="display: flex; align-items: unsafe flex-start; justify-content: unsafe center; width: 1px; height: 1px; padding-top: 67px; margin-left: 708px;"><div style="box-sizing: border-box; font-size: 0; text-align: center; color: #232F3E; "><div style="display: inline-block; font-size: 12px; font-family: Helvetica; color: #232F3E; line-height: 1.2; pointer-events: all; white-space: nowrap; ">SSM RunCommand<br /><font style="font-size:10px">AWS-RunShellScript<br />systemctl restart collibra-dq</font></div></div></div></foreignObject><text x="708" y="79" fill="#232F3E" font-family="Helvetica" font-size="12px" text-anchor="middle">SSM RunCom...</text></switch></g></g></g><g data-cell-id="eb"><g transform="translate(0.5,0.5)"><path d="M 378 0 L 438 0 L 438 60 L 378 60 Z" fill="#e7157b" stroke="none" pointer-events="all" style="fill: rgb(231, 21, 123);"/><path d="M 419.71 52.29 C 417.87 52.29 416.37 50.78 416.37 48.94 C 416.37 47.09 417.87 45.58 419.71 45.58 C 421.54 45.58 423.04 47.09 423.04 48.94 C 423.04 50.78 421.54 52.29 419.71 52.29 Z M 412.4 37.71 L 403.54 37.71 L 399.11 30 L 403.54 22.29 L 412.4 22.29 L 416.83 30 Z M 397.39 14.42 C 395.55 14.42 394.06 12.91 394.06 11.06 C 394.06 9.22 395.55 7.71 397.39 7.71 C 399.23 7.71 400.72 9.22 400.72 11.06 C 400.72 12.91 399.23 14.42 397.39 14.42 Z M 419.71 43.87 C 419.07 43.87 418.47 43.99 417.91 44.21 L 414.29 38.07 L 414.1 38.18 L 418.55 30.43 C 418.7 30.16 418.7 29.84 418.55 29.57 L 413.63 21 C 413.48 20.73 413.2 20.57 412.89 20.57 L 403.94 20.57 L 403.97 20.55 L 400.65 14.92 C 401.74 13.99 402.43 12.61 402.43 11.06 C 402.43 8.27 400.17 6 397.39 6 C 394.61 6 392.35 8.27 392.35 11.06 C 392.35 13.86 394.61 16.13 397.39 16.13 C 398.02 16.13 398.63 16.01 399.18 15.79 L 402.28 21.05 L 397.39 29.57 C 397.24 29.84 397.24 30.16 397.39 30.43 L 402.31 39 C 402.46 39.27 402.74 39.43 403.05 39.43 L 412.89 39.43 C 412.96 39.43 413.03 39.42 413.1 39.4 L 416.44 45.08 C 415.36 46.01 414.67 47.39 414.67 48.94 C 414.67 51.73 416.93 54 419.71 54 C 422.48 54 424.74 51.73 424.74 48.94 C 424.74 46.14 422.48 43.87 419.71 43.87 Z M 424.79 23.23 C 422.95 23.23 421.46 21.73 421.46 19.88 C 421.46 18.03 422.95 16.53 424.79 16.53 C 426.62 16.53 428.12 18.03 428.12 19.88 C 428.12 21.73 426.62 23.23 424.79 23.23 Z M 431.03 29.57 L 427.79 23.94 C 429.02 23.01 429.82 21.54 429.82 19.88 C 429.82 17.09 427.56 14.82 424.79 14.82 C 424.08 14.82 423.41 14.96 422.8 15.23 L 420.16 10.64 C 420.01 10.37 419.72 10.21 419.42 10.21 L 408.85 10.21 L 408.85 11.92 L 418.93 11.92 L 421.37 16.17 C 420.38 17.1 419.75 18.42 419.75 19.88 C 419.75 22.67 422.01 24.95 424.79 24.95 C 425.3 24.95 425.8 24.87 426.27 24.72 L 429.31 30 L 425.05 37.41 L 426.53 38.27 L 431.03 30.43 C 431.18 30.16 431.18 29.84 431.03 29.57 Z M 391.91 43.07 C 390.07 43.07 388.58 41.57 388.58 39.72 C 388.58 37.87 390.07 36.37 391.91 36.37 C 393.75 36.37 395.24 37.87 395.24 39.72 C 395.24 41.57 393.75 43.07 391.91 43.07 Z M 394.69 43.94 C 396.05 43.03 396.95 41.48 396.95 39.72 C 396.95 36.93 394.69 34.65 391.91 34.65 C 391.11 34.65 390.35 34.85 389.67 35.19 L 386.69 30 L 391.63 21.4 L 390.15 20.55 L 384.97 29.57 C 384.82 29.84 384.82 30.16 384.97 30.43 L 388.29 36.21 C 387.41 37.12 386.87 38.35 386.87 39.72 C 386.87 42.51 389.13 44.78 391.91 44.78 C 392.33 44.78 392.73 44.73 393.12 44.63 L 395.84 49.36 C 396 49.63 396.28 49.79 396.58 49.79 L 407.15 49.79 L 407.15 48.08 L 397.07 48.08 Z" fill="#000000" stroke="none" pointer-events="all" style="fill: rgb(0, 0, 0);"/></g><g><g><switch><foreignObject style="overflow: visible; text-align: left;" pointer-events="none" width="100%" height="100%" requiredFeatures="http://www.w3.org/TR/SVG11/feature#Extensibility"><div xmlns="http://www.w3.org/1999/xhtml" style="display: flex; align-items: unsafe flex-start; justify-content: unsafe center; width: 1px; height: 1px; padding-top: 67px; margin-left: 408px;"><div style="box-sizing: border-box; font-size: 0; text-align: center; color: #232F3E; "><div style="display: inline-block; font-size: 12px; font-family: Helvetica; color: #232F3E; line-height: 1.2; pointer-events: all; white-space: nowrap; ">EventBridge Rule<br /><font style="font-size:10px">Matches secret ARN<br />3 retries · 1h max event age</font></div></div></div></foreignObject><text x="408" y="79" fill="#232F3E" font-family="Helvetica" font-size="12px" text-anchor="middle">EventBridg...</text></switch></g></g></g></g></g></g><switch><g requiredFeatures="http://www.w3.org/TR/SVG11/feature#Extensibility"/><a transform="translate(0,-5)" xlink:href="https://www.drawio.com/doc/faq/svg-export-text-problems" target="_blank"><text text-anchor="middle" font-size="10px" x="50%" y="100%">Text is not SVG - cannot display</text></a></switch></svg>